inDegrees=no
num_controls=7
num_derivatives=13
num_iterations=160
num_multipliers=7
num_parameters=0
num_slacks=7
num_states=26
objective=6.159262
objective_accelerations=0.745214
objective_balance=0.031892
objective_effort=0.669521
objective_height=4.688165
objective_ligament=0.024469
solver_duration=1793.066642
status=Solve_Succeeded
success=true
DataType=double
version=3
OpenSimVersion=4.4-2022-07-23-0e9fedc
endheader
time	/jointset/ground_pelvis/pelvis_tilt/value	/jointset/ground_pelvis/pelvis_tx/value	/jointset/ground_pelvis/pelvis_ty/value	/jointset/hip_l/hip_flexion_l/value	/jointset/hip_l/hip_adduction_l/value	/jointset/hip_l/hip_rotation_l/value	/jointset/back/lumbar_extension/value	/jointset/patellofemoral_l/patellar_flexion_l/value	/jointset/knee_l/knee_flexion_l/value	/jointset/knee_l/knee_adduction_l/value	/jointset/knee_l/knee_rotation_l/value	/jointset/ankle_l/ankle_angle_l/value	/jointset/subtalar_l/subtalar_angle_l/value	/jointset/ground_pelvis/pelvis_tilt/speed	/jointset/ground_pelvis/pelvis_tx/speed	/jointset/ground_pelvis/pelvis_ty/speed	/jointset/hip_l/hip_flexion_l/speed	/jointset/hip_l/hip_adduction_l/speed	/jointset/hip_l/hip_rotation_l/speed	/jointset/back/lumbar_extension/speed	/jointset/patellofemoral_l/patellar_flexion_l/speed	/jointset/knee_l/knee_flexion_l/speed	/jointset/knee_l/knee_adduction_l/speed	/jointset/knee_l/knee_rotation_l/speed	/jointset/ankle_l/ankle_angle_l/speed	/jointset/subtalar_l/subtalar_angle_l/speed	/forceset/tau_hip_flexion_l	/forceset/tau_hip_adduction_l	/forceset/tau_hip_rotation_l	/forceset/tau_knee_flexion_l	/forceset/tau_ankle_angle_l	/forceset/tau_subtalar_angle_l	/forceset/tau_lumbar_extension	lambda_cid13_p0	lambda_cid13_p1	lambda_cid13_p2	lambda_cid13_p3	lambda_cid13_p4	lambda_cid13_p5	lambda_cid14_p0	/jointset/ground_pelvis/pelvis_tilt/accel	/jointset/ground_pelvis/pelvis_tx/accel	/jointset/ground_pelvis/pelvis_ty/accel	/jointset/hip_l/hip_flexion_l/accel	/jointset/hip_l/hip_adduction_l/accel	/jointset/hip_l/hip_rotation_l/accel	/jointset/back/lumbar_extension/accel	/jointset/patellofemoral_l/patellar_flexion_l/accel	/jointset/knee_l/knee_flexion_l/accel	/jointset/knee_l/knee_adduction_l/accel	/jointset/knee_l/knee_rotation_l/accel	/jointset/ankle_l/ankle_angle_l/accel	/jointset/subtalar_l/subtalar_angle_l/accel	gamma_cid13_p0	gamma_cid13_p1	gamma_cid13_p2	gamma_cid13_p3	gamma_cid13_p4	gamma_cid13_p5	gamma_cid14_p0
0	-0.03523379010236362	0.05598505408138524	0.9203696101591952	0.3085811930696054	-0.2951883054914086	-0.291639614526741	-0.3879500408040475	0.2499276582270946	0.249927658227084	-0.1745328683166673	-0.164753468344435	-0.0008036543073733089	0.0007781573049931023	0	0	0	0	0	0	0	0	0	0	0	0	0	0.08250403948374675	-0.02229371770671484	-0.01444650011963556	-0.2082997433600432	0.1053626722588468	-0.02124583170981896	-0.02008004138732332	-9.697544107167896	8.002324263304722	1.6083411792304	50.75480654397737	-604.4353558398855	-60.65373381485286	-22.87058046147547	-2.676998458645953	-3.278336935391228	-1.245111185472715	13.12579293354186	-0.6435374984392331	3.044233977279207	-8.250948371361654	9.917680345121527	9.917680345122182	1.766713100719741	-0.4824469714811999	0.005792850028732121	-0.7027799855111939	3.252778093984154e-08	1.554525444622461e-07	4.702098994693432e-08	-4.056883068519476e-08	2.486574929836587e-07	6.269726754943935e-08	4.461328771539056e-09
0.01	-0.03536194305781624	0.05582375090170701	0.9203086949323775	0.3092219513753023	-0.2952207727739413	-0.291487249652788	-0.3883608770420329	0.2504139295861437	0.2504139295861199	-0.1744484022516763	-0.164774567798097	-0.0008038003844137989	0.0007425651970911964	-0.02550991301559553	-0.03202294784441408	-0.01213133931030402	0.1274479013275232	-0.006435181632269051	0.03032506575620041	-0.08151355838388857	0.09679113635350019	0.0967911363535009	0.01685556106287328	-0.004179679550052833	8.506418855571109e-05	-0.007016632860533907	0.07651649497689252	-0.03310740842455259	-0.0139429512528547	-0.2060455481878842	0.1024347141880749	-0.008455851460145629	-0.01367234560424823	-10.26155658697302	2.657698412315102	2.33328093619186	48.16988142362728	-607.8973425729927	-71.32133941073369	-22.87686196813715	-2.469895246184915	-3.128628609761331	-1.189339664339551	12.44872052410861	-0.6347955440387294	3.00445552820158	-8.003506189387249	9.490359070133664	9.490359070133342	1.639357606832656	-0.379692552872634	0.02701307373132676	-0.6858675764903889	9.082541376835037e-10	1.420976185279714e-07	1.23866551561042e-07	-3.931948388079343e-09	8.047684041018136e-08	1.181937212399231e-08	-3.15890053814435e-09
0.02	-0.0357415766480742	0.05534934726342484	0.9201280274403502	0.3111160750526205	-0.2953158492824822	-0.2910360715905929	-0.3895672381873594	0.2518542180666462	0.2518542180666456	-0.1741965045764722	-0.1648362568685028	-0.0007996658454768746	0.0006398542325507723	-0.05029612695788219	-0.06262009172078545	-0.02395045304193003	0.2506730743250798	-0.01252184520126584	0.05976263764883882	-0.1591049814671307	0.1908034242937759	0.1908034242937738	0.03348632203621418	-0.008117923344321352	0.0008561231956023098	-0.01342377132770189	0.07052895047009654	-0.04392109914235657	-0.01343940238594729	-0.2037913530157102	0.09950675611732471	0.004334128789568286	-0.007264649821146915	-10.74645148752408	-2.698872562811473	3.057944325273285	45.56880882954224	-610.0994796018936	-81.89858656939535	-22.89529490673074	-2.532258643983877	-2.993176141782942	-1.182666069737119	12.28124726754856	-0.5738338857847927	2.866735204566792	-7.466521311232185	9.361910662476696	9.361910662476646	1.721753082813245	-0.4341598203243843	0.1429918137266242	-0.580881106838122	-3.071127266447453e-08	1.287426925936967e-07	2.007121131751496e-07	3.270493390903607e-08	-8.770381216329597e-08	-3.905852330145473e-08	-1.077912984782776e-08
0.03	-0.03636572391449855	0.0545756589943595	0.9198303059853855	0.3142224761528196	-0.2954699956496127	-0.2902954374855004	-0.3915305352186199	0.2542210322969288	0.2542210322969125	-0.1737794389233858	-0.1649365520574096	-0.0007850372412644705	0.0004759579726170189	-0.07440062598609368	-0.09192367891675683	-0.03557794286198889	0.3699658478881445	-0.01825782233702111	0.08822266301962808	-0.2330081196158526	0.2821160055977741	0.2821160055977784	0.04985311142428407	-0.01189588424885034	0.0021205516143532	-0.01928472437430156	0.06352709178318536	-0.03753468191246701	-0.01282426890700839	-0.199598079271567	0.09865803890549367	0.001384373124724078	-0.0008013017067718778	-11.12504680116887	-1.410638046525357	2.920109846206777	44.19512507635878	-611.2491207430478	-78.19409040339494	-22.92504598045086	-2.32964396955349	-2.869860843839843	-1.150424395077246	11.65709202865975	-0.5660775111357127	2.814380594689013	-7.270264290861655	8.949421626659293	8.949421626660298	1.583124115988169	-0.3427970104997484	0.1258164323499775	-0.5781328927684755	-4.964265134618163e-08	1.125762434851758e-07	2.562450191710709e-07	5.402103088834562e-08	-1.917437580385417e-07	-7.189212147932979e-08	-1.697677543386329e-08
0.04	-0.03722693585868181	0.05351475268626663	0.9194167828408323	0.3185025649142367	-0.2956800213648326	-0.2892744542484281	-0.394216474476206	0.257487670292692	0.2574876702926911	-0.1732009089265765	-0.1650732634123845	-0.0007562347375845563	0.0002555660843777262	-0.0977090625067938	-0.1200636995262931	-0.04711079095961114	0.4854106065701851	-0.02369771481936827	0.1158324640445702	-0.3036334267313168	0.3707681773936881	0.3707681773936987	0.06577919077972838	-0.01540115655268541	0.003690903089126094	-0.02472289698880453	0.05652523309627544	-0.03114826468257386	-0.01220913542791704	-0.1954048055274531	0.09780932169365891	-0.001565382540119811	0.00566204640760764	-11.43194166490062	-0.1326006972526625	2.781207799318485	42.79807205109461	-611.2716166502162	-74.40281443702986	-22.96511993016179	-2.373046142481302	-2.760462824496158	-1.1637377252498	11.51164429134382	-0.5146169551031534	2.696690335397347	-6.810955104580476	8.829828760859913	8.829828760859812	1.633611076288167	-0.3796221001856421	0.2041764249307609	-0.4963250204188585	-6.831241872643613e-08	9.635182482667054e-08	3.113384889686791e-07	7.502123538687565e-08	-2.944612151158858e-07	-1.043536722912755e-07	-2.314508939673083e-08
0.05	-0.03831781314224295	0.05217850325303145	0.9188881267205983	0.3239184661857102	-0.2959427175720049	-0.2879820527923031	-0.3975915620985919	0.2616277828703159	0.2616277828703105	-0.1724649034560082	-0.1652439396233961	-0.0007098979773864762	-1.672816468899909e-05	-0.1203399521743616	-0.1469667772108948	-0.05862391408317611	0.5971084624461512	-0.02878224733956486	0.1424951488539388	-0.3708213978178815	0.4568034138866078	0.456803413886622	0.08134791815911754	-0.01868338569980423	0.00564868148523428	-0.029647864027751	0.04961595107889042	-0.03154112442826332	-0.01164803794639339	-0.1927702823896287	0.09737843470194076	0.001286649264183977	0.01207260663559161	-11.36961594537754	-1.360762961009343	2.952580549696029	40.69709839098104	-611.2328082464198	-75.88856230036933	-23.01425048205175	-2.189143940979204	-2.622303580673047	-1.145681477602903	10.8996720098679	-0.4965233974783427	2.628108369333822	-6.588313121114215	8.422737135872815	8.422737135873398	1.507446022375576	-0.2948644520908774	0.2024170866050151	-0.4774205470950234	-8.189013478265263e-08	5.577574371860196e-08	3.392502012483144e-07	8.92802275774862e-08	-3.713988750711548e-07	-1.295268802413377e-07	-2.910264762992943e-08
